<svg xmlns="http://www.w3.org/2000/svg" width="100%" height="100%" fill="none" viewBox="0 0 200 200"><path fill="currentColor" d="M95.188 167.869q-.644 0-1.108-.336c-.3067-.224-.544-.551-.712-.98-.1653-.432-.248-.959-.248-1.58 0-.952.1827-1.675.548-2.168q.552-.744 1.52-.744c.4267 0 .7947.109 1.104.328s.5467.545.712.98c.168.432.252.967.252 1.604 0 .621-.0827 1.148-.248 1.58-.1653.429-.4027.756-.712.98q-.464.336-1.108.336m.004-.576c.4213 0 .7427-.191.964-.572.224-.384.336-.967.336-1.748 0-.52-.0507-.953-.152-1.3-.0987-.347-.2453-.605-.44-.776-.192-.173-.4293-.26-.712-.26q-.64 0-.972.576c-.2213.384-.332.971-.332 1.76q0 .78.152 1.296c.1013.344.248.601.44.772q.292.252.716.252m4.3889.472q-.048 0-.048-.048v-.88q0-.048.048-.048h.8081q.048 0 .048.048v.88q0 .048-.048.048zm5.2011.104c-.43 0-.799-.112-1.108-.336-.307-.224-.544-.551-.712-.98-.166-.432-.248-.959-.248-1.58 0-.952.182-1.675.548-2.168.368-.496.874-.744 1.52-.744.426 0 .794.109 1.104.328.309.219.546.545.712.98.168.432.252.967.252 1.604 0 .621-.083 1.148-.248 1.58-.166.429-.403.756-.712.98-.31.224-.679.336-1.108.336m.004-.576c.421 0 .742-.191.964-.572.224-.384.336-.967.336-1.748 0-.52-.051-.953-.152-1.3-.099-.347-.246-.605-.44-.776-.192-.173-.43-.26-.712-.26q-.6405 0-.972.576c-.222.384-.332.971-.332 1.76 0 .52.05.952.152 1.296.101.344.248.601.44.772.194.168.433.252.716.252"/><path fill="currentColor" d="M120.456 102.765q-.048 0-.048-.048l.02-2.852-.02-2.652q0-.048.048-.048h3.54q.048 0 .048.048v.472q0 .048-.048.048h-2.832l-.016 1.76h2.688q.048 0 .048.048v.468q0 .048-.048.048h-2.688l.016 2.14h2.896q.048 0 .048.048v.472q0 .048-.048.048zm6.589.1c-.32 0-.607-.057-.86-.172s-.468-.288-.644-.52-.309-.524-.4-.876-.136-.765-.136-1.24c0-.5974.077-1.12.232-1.568.157-.448.395-.7974.712-1.048.32-.2507.723-.376 1.208-.376.317 0 .591.0533.82.16.232.1066.417.264.556.472.141.2053.231.4573.268.756q.0075.052-.048.052h-.64c-.032 0-.049-.0147-.052-.044-.029-.264-.131-.4694-.304-.616-.171-.1467-.388-.22-.652-.22-.416 0-.741.184-.976.552-.232.368-.349.888-.352 1.56.093-.152.211-.2814.352-.388.144-.1067.307-.1867.488-.24.181-.056.376-.084.584-.084.371 0 .689.076.956.228.269.1493.476.3626.62.64.147.275.22.599.22.972 0 .405-.083.759-.248 1.06-.165.299-.395.531-.688.696-.293.163-.632.244-1.016.244m.004-.564c.245 0 .456-.056.632-.168.179-.115.315-.276.408-.484.096-.211.144-.46.144-.748 0-.275-.047-.511-.14-.708-.091-.2-.224-.352-.4-.456q-.264-.16-.648-.16c-.253 0-.471.0533-.652.16-.179.1066-.316.2586-.412.456-.093.197-.14.432-.14.704 0 .277.048.523.144.736q.1485.3165.42.492c.181.117.396.176.644.176m3.921.468c-.035 0-.05-.017-.044-.052q.1755-.9045.456-1.776c.186-.581.408-1.1414.664-1.68q.387-.812.876-1.528h-3.016q-.048 0-.048-.048v-.472q0-.048.048-.048h3.776q.048 0 .048.048v.48c0 .016-.006.036-.016.06q-.4845.724-.876 1.528c-.259.536-.484 1.093-.676 1.672-.192.576-.347 1.167-.464 1.772-.006.029-.023.044-.052.044z"/><path fill="currentColor" d="M1.852 6.765q-.052 0-.052-.048l.028-2.724-.02-2.26H.048Q0 1.733 0 1.685v-.472q0-.048.048-.048h4.28q.048 0 .048.048v.472q0 .048-.048.048H2.572l-.024 2.26.032 2.724q0 .048-.052.048zm3.1529 0q-.048 0-.048-.048v-.44q0-.048.048-.048h1.204l.008-1.58-.008-1.468h-1.204q-.048 0-.048-.048v-.44q0-.048.048-.048h1.876q.048 0 .048.048l-.016.96q.2319-.5.684-.764.456-.268 1-.268.132 0 .252.016.124.012.236.036.04.008.04.056v.5q0 .048-.052.044-.12-.024-.24-.036a2.3 2.3 0 0 0-.236-.012q-.692 0-1.136.408-.44.404-.532 1.132v1.464h1.748q.048 0 .048.048v.44q0 .048-.048.048zm6.3208.1q-.464 0-.792-.14-.324-.14-.496-.404-.172-.268-.172-.644 0-.552.4-.86.4041-.312 1.284-.428.376-.052.62-.1.248-.048.392-.112t.2-.16q.06-.096.06-.244 0-.34-.26-.528-.2559-.188-.756-.188-.508 0-.784.216-.276.212-.304.636 0 .048-.048.048h-.62q-.0519 0-.048-.048.036-.652.504-1.004.468-.356 1.3-.356.5601 0 .948.164.392.164.592.484.2.316.2.78v1.2l.012 1.54q0 .048-.048.048h-.616q-.048 0-.048-.048l.016-.584q-.236.356-.636.544-.3999.188-.9.188m.196-.508q.548 0 .896-.268.348-.272.416-.76v-.788q-.08.072-.232.12-.148.048-.38.092a17 17 0 0 1-.548.084q-.404.06-.64.164-.2319.104-.336.264-.1.16-.1.38 0 .348.236.532.24.18.688.18m4.3809 2.016q-.256 0-.508-.04a3.5 3.5 0 0 1-.48-.104q-.04-.008-.04-.052l.008-.436q0-.056.052-.044.228.064.428.096.204.032.4.032.624 0 .896-.308.276-.304.276-.912l.008-1.956-.008-1.468h-1.928q-.048 0-.048-.048v-.44q0-.048.048-.048h2.628q.048 0 .048.048l-.016 1.96.008 1.964q.004.864-.448 1.308-.448.448-1.324.448m1.088-6.248q-.052 0-.052-.048v-.672q0-.048.052-.048h.644q.052 0 .052.048v.672q0 .048-.052.048zm4.4089 4.732q-.492 0-.868-.156t-.628-.44q-.248-.288-.376-.68-.124-.3921-.124-.864 0-.484.136-.88t.392-.684q.26-.288.628-.444.372-.156.84-.156.608 0 1.04.264t.664.752q.236.488.244 1.176 0 .048-.048.048h-3.16q.008.408.096.704.088.292.248.484.164.188.396.28.232.088.524.088.484 0 .78-.252t.388-.72q.008-.044.052-.044h.612q.056 0 .048.04-.06.432-.3.768-.236.332-.636.524t-.948.192m-1.236-2.552h2.396q-.012-.34-.144-.624-.132-.288-.388-.456-.252-.168-.628-.168-.536 0-.852.332-.312.328-.384.916m6.0729 2.552q-.624 0-1.076-.256-.4521-.26-.696-.74-.24-.48-.24-1.144t.244-1.148q.244-.488.7-.752.46-.264 1.096-.264.528 0 .916.184.392.18.62.508.232.328.272.776.008.048-.044.048h-.612q-.04 0-.048-.044-.076-.472-.364-.716t-.756-.244q-.408 0-.692.188-.284.1839-.436.552-.148.364-.148.908t.148.908q.152.364.432.548.284.18.684.18.516.004.82-.276.308-.2841.352-.804.008-.048.052-.048h.62q.052 0 .044.044-.036.476-.276.836-.24.356-.652.556-.408.2-.96.2m5.6368-.012q-.86 0-1.296-.428-.432-.4281-.432-1.284l.004-1.952h-1.268q-.048 0-.048-.048v-.44q0-.048.048-.048h1.264l-.004-1.02q0-.048.048-.048h.648q.048 0 .048.048l-.004 1.02h1.932q.048 0 .048.048v.44q0 .048-.048.048h-1.932l.004 1.944q0 .388.112.648t.356.392q.2481.128.648.128.192 0 .384-.028a6 6 0 0 0 .416-.084q.052-.012.052.044l.008.436q0 .04-.036.052a2.9 2.9 0 0 1-.468.1q-.24.032-.484.032m3.8969.012q-.644 0-1.096-.264-.4479-.268-.684-.748-.236-.484-.236-1.132t.236-1.132q.2361-.488.684-.756.452-.272 1.096-.272t1.092.268q.4521.264.684.748t.232 1.132-.232 1.136q-.2319.484-.684.752-.4479.268-1.092.268m0-.508q.424 0 .704-.188.28-.192.416-.556.14-.368.14-.892 0-.52-.14-.888-.14-.372-.42-.568t-.704-.196q-.4239 0-.708.196-.2799.196-.42.568t-.14.892q0 .52.14.888.144.364.424.556.2841.188.708.188m2.8129.416q-.048 0-.048-.048v-.44q0-.048.048-.048h1.204l.008-1.58-.008-1.468h-1.204q-.048 0-.048-.048v-.44q0-.048.048-.048h1.876q.048 0 .048.048l-.016.96q.232-.5.684-.764.456-.268 1-.268.132 0 .252.016.124.012.236.036.04.008.04.056v.5q0 .048-.052.044-.12-.024-.24-.036a2.3 2.3 0 0 0-.236-.012q-.692 0-1.136.408-.44.404-.532 1.132v1.464h1.748q.048 0 .048.048v.44q0 .048-.048.048zm6.0049 1.36q-.06 0-.036-.056l.544-1.276-1.84-4.092q-.024-.056.036-.056h.712q.044 0 .06.04l1.384 3.332 1.308-3.332q.0159-.04.06-.04h.612q.06 0 .04.056l-2.208 5.388q-.012.036-.056.036z"/><path fill="currentColor" d="M195.003 160.201q0-.045.042-.03l4.125 1.26q.033.009.033.042v.663q0 .033-.033.042l-4.125 1.254q-.042.015-.042-.03v-.501q0-.033.033-.039l1.248-.366v-1.419l-1.248-.366q-.033-.006-.033-.039zm1.707.987v1.197l2.064-.597zm-1.707 2.725q0-.036.036-.036h.33q.036 0 .036.036v.903l1.185.006 1.101-.006v-.903q0-.036.036-.036h.33q.036 0 .036.036v1.407q0 .036-.036.036l-.72-.012q.375.174.573.513.201.342.201.75 0 .099-.012.189-.009.093-.027.177-.006.03-.042.03h-.375q-.036 0-.033-.039.018-.09.027-.18.009-.087.009-.177 0-.519-.306-.852-.303-.33-.849-.399h-1.098v1.311q0 .036-.036.036h-.33q-.036 0-.036-.036zm-.069 5.13q0-.468.192-.807.195-.339.555-.522.36-.18.858-.18t.861.183q.366.183.564.525.198.345.198.822 0 .396-.138.687-.135.294-.381.465-.246.174-.582.204-.036.006-.036-.033v-.459q0-.03.033-.036.354-.057.537-.273t.183-.567q0-.306-.141-.519-.138-.213-.414-.327-.273-.111-.681-.111t-.681.111q-.273.114-.411.324-.135.213-.135.513-.003.387.207.615.213.231.603.264.036.006.036.039v.465q0 .039-.033.033-.357-.027-.627-.207-.267-.18-.417-.489-.15-.306-.15-.72m-.006 3.208q0-.348.105-.594.105-.243.303-.372.201-.129.483-.129.414 0 .645.3.234.303.321.963.039.282.075.465.036.186.084.294t.12.15q.072.045.183.045.255 0 .396-.195.141-.192.141-.567 0-.381-.162-.588-.159-.207-.477-.228-.036 0-.036-.036v-.465q0-.039.036-.036.489.027.753.378.267.351.267.975 0 .42-.123.711-.123.294-.363.444-.237.15-.585.15h-.9l-1.155.009q-.036 0-.036-.036v-.462q0-.036.036-.036l.438.012q-.267-.177-.408-.477t-.141-.675m.381.147q0 .411.201.672.204.261.57.312h.591q-.054-.06-.09-.174-.036-.111-.069-.285-.03-.174-.063-.411-.045-.303-.123-.48-.078-.174-.198-.252-.12-.075-.285-.075-.261 0-.399.177-.135.18-.135.516m-.306 2.494q0-.036.036-.036l1.368.006 1.65-.006q.036 0 .036.036v.465q0 .036-.036.036l-.504-.012q.159.099.297.252.141.153.228.36.087.21.087.474 0 .324-.138.564t-.411.372q-.273.135-.681.135h-.612l-1.284.009q-.036 0-.036-.036v-.486q0-.036.036-.036l1.284.009h.591q.435 0 .636-.192.204-.192.204-.489 0-.222-.108-.408-.108-.183-.318-.315-.207-.132-.507-.192l-.498.003-1.284.009q-.036 0-.036-.036zm-.072 4.623q0-.321.138-.561.138-.237.411-.369t.681-.132h.612l1.284-.009q.036 0 .036.036v.486q0 .036-.036.036l-1.284-.009h-.591q-.435 0-.639.189-.201.192-.201.483 0 .219.108.402t.315.312q.21.132.51.192l.498-.003 1.284-.009q.036 0 .036.036v.486q0 .036-.036.036l-1.368-.006-1.65.006q-.036 0-.036-.036v-.468q0-.033.036-.033l.504.012q-.159-.099-.3-.252-.141-.15-.228-.357-.084-.207-.084-.468m.072 2.359q0-.024.024-.024l1.44.006 1.602-.006q.024 0 .024.024v.444q0 .024-.024.024l-.336-.006q.213.09.321.246.111.159.111.384 0 .243-.117.396-.114.156-.345.228.231.099.345.261.117.162.117.387 0 .357-.252.531-.252.177-.738.177h-.396l-1.752.006q-.024 0-.024-.024v-.474q0-.024.024-.024l1.752.006h.408q.303 0 .447-.075.147-.075.147-.243 0-.192-.192-.309t-.522-.153h-.288l-1.752.006q-.024 0-.024-.024v-.474q0-.024.024-.024l1.752.006h.408q.303 0 .447-.075.147-.075.147-.243 0-.189-.183-.3-.18-.111-.531-.156l-.48-.006-1.56.006q-.024 0-.024-.024zm-.078 8.707q0-.483.252-.831.252-.345.735-.534.486-.186 1.185-.186 1.071 0 1.626.411.558.414.558 1.14 0 .48-.246.828t-.735.534q-.486.189-1.203.189-.699 0-1.185-.186-.483-.186-.735-.534t-.252-.831m.432.003q0 .474.429.723.432.252 1.311.252.585 0 .975-.114.39-.111.582-.33.195-.216.195-.534 0-.48-.432-.729t-1.32-.249q-.585 0-.972.114t-.579.33q-.189.219-.189.537m-.432 3.595q0-.483.252-.831.252-.345.735-.534.486-.186 1.185-.186 1.071 0 1.626.411.558.414.558 1.14 0 .48-.246.828t-.735.534q-.486.189-1.203.189-.699 0-1.185-.186-.483-.186-.735-.534t-.252-.831m.432.003q0 .474.429.723.432.252 1.311.252.585 0 .975-.114.39-.111.582-.33.195-.216.195-.534 0-.48-.432-.729t-1.32-.249q-.585 0-.972.114t-.579.33q-.189.219-.189.537m-.354 3.994q0-.039.036-.039l1.104.003v-1.998q0-.036.036-.036h.411q.024 0 .045.012l2.544 1.815q.024.012.024.042v.684q0 .036-.036.036h-2.601v.708q0 .036-.036.036h-.351q-.036 0-.036-.036v-.708h-1.104q-.036 0-.036-.036zm1.563-1.587v1.551l1.395.003.78.009z"/><g clip-path="url(#a)"><path fill="currentColor" stroke="currentColor" stroke-miterlimit="10" d="m180.318 77.5792 5.741-10.7991 4.838 4.7364z"/><path stroke="currentColor" stroke-miterlimit="10" d="M87.5847 94.7998c-6.9404 6.9802-6.9404 18.2872 0 25.2572 6.9404 6.98 18.1833 6.98 25.1143 0 3.718-3.739 4.442-8.774 5.175-13.621l10.014-65.9904c.754-8.017 4.175-15.8147 10.282-21.9571 13.92-13.9999 36.477-13.9999 50.397 0s13.92 36.6849 0 50.6848"/><path stroke="currentColor" stroke-miterlimit="10" d="M100.176 178.001c38.441 0 69.602-31.339 69.602-69.999 0-38.6596-31.161-69.9994-69.602-69.9994-38.4396 0-69.6014 31.3398-69.6014 69.9994 0 38.66 31.1618 69.999 69.6014 69.999Z"/><path fill="currentColor" d="m105.633 108.319-5.7842-5.817-5.7839 5.817 5.7839 5.817z"/><path stroke="currentColor" stroke-miterlimit="10" d="M126.352 84.3099h6.196v6.2321"/><path stroke="currentColor" stroke-miterlimit="10" d="M126.352 139.242h6.196v-6.232"/><path stroke="currentColor" stroke-miterlimit="10" d="M73.3471 84.3099h-6.1968v6.2321"/><path stroke="currentColor" stroke-miterlimit="10" d="M73.3471 139.242h-6.1968v-6.232"/><path stroke="currentColor" stroke-miterlimit="10" d="M20.2434 88.807v39.706"/><path stroke="currentColor" stroke-miterlimit="10" d="M.503 108.66h19.7404"/><path stroke="currentColor" stroke-miterlimit="10" d="M25.2008 88.807v39.706"/></g><mask id="b" width="19" height="15" x="157.452" y=".6" fill="#000" maskUnits="userSpaceOnUse"><path fill="#fff" d="M157.452.6h19v15h-19z"/><path d="M159.702 12.225v-8.25c0-.6093.515-1.125 1.125-1.125h1.172c.961 0 1.875.2578 2.695.75l3.75 2.25h.445c1.618 0 3.164.5391 4.196 1.922l.257.328-.257.3282c-1.032 1.3828-2.578 1.9218-4.196 1.9218h-.445l-3.75 2.25c-.82.4922-1.734.75-2.695.75h-1.172c-.61 0-1.125-.4922-1.125-1.125m6.562-1.875h-2.625l-.562.4688v1.2656c.375-.0937.726-.2578 1.055-.4453zm-4.312 1.875V11.1h-1.125v1.125zm4.312-6.375-2.132-1.289c-.329-.1875-.68-.3516-1.055-.4453v1.2656l.562.4687zm-5.437-1.875V5.1h1.125V3.975zm0 2.4375V9.975h1.5l.773-.6328.164-.1172h5.625c.774 0 1.453-.1406 2.063-.4218V7.3969c-.61-.2812-1.289-.4219-2.063-.4219h-5.625l-.164-.1171-.773-.6329h-1.5zm8.625.9375c.211 0 .375.1641.375.375v.75c0 .211-.164.375-.375.375s-.375-.164-.375-.375v-.75c0-.2109.164-.375.375-.375"/></mask><path fill="var(--color-surface)" d="m168.444 5.85-1.029 1.715.475.285h.554zm4.641 1.922-1.604 1.1956.015.0202.016.0198zm.257.328 1.573 1.2357.971-1.2357-.971-1.2356zm-.257.3282-1.573-1.2357-.016.0198-.015.0202zm-4.641 1.9218v-2h-.554l-.475.285zm-2.18 0 1.035 1.7117L173.44 8.35h-7.176zm-2.625 0v-2h-.724l-.556.4636zm-.562.4688-1.281-1.5365-.719.5997v.9368zm0 1.2656h-2v2.5616l2.485-.6213zm1.055-.4453.992 1.7365.021-.0122.021-.0126zm-2.18.5859v2h2v-2zm0-1.125h2v-2h-2zm-1.125 0v-2h-2v2zm0 1.125h-2v2h2zm5.437-6.375v2h7.176l-6.141-3.7116zm-2.132-1.289 1.034-1.7117-.021-.0127-.021-.0121zm-1.055-.4453.485-1.9403-2.485-.6213v2.5616zm0 1.2656h-2v.9367l.719.5997zm.562.4687-1.28 1.5365.556.4635h.724zm-2.812-1.875v-2h-2v2zm0 1.125h-2v2h2zm1.125 0v2h2v-2zm0-1.125h2v-2h-2zm-1.125 6h-2v2h2zm1.5 0v2h.714l.552-.452zm.773-.6328-1.162-1.6274-.053.038-.051.0415zm.164-.1172v-2h-.641l-.521.3726zm7.688-.4218.838 1.8159 1.162-.5363V8.8032zm0-1.4063h2V6.1173l-1.162-.5363zm-7.688-.4219-1.162 1.6275.521.3725h.641zm-.164-.1171-1.266 1.5479.051.0414.053.0381zm-.773-.6329 1.266-1.5479-.552-.452h-.714zm-1.5 0v-2h-2v2zm-1.125 6h2v-8.25h-4v8.25zm0-8.25h2c0 .2678-.113.484-.252.6232s-.355.2518-.623.2518v-4c-1.714 0-3.125 1.411-3.125 3.125zm1.125-1.125v2h1.172v-4h-1.172zm1.172 0v2c.592 0 1.152.1564 1.666.465l1.029-1.715 1.029-1.715c-1.126-.6757-2.395-1.035-3.724-1.035zm2.695.75-1.029 1.715 3.75 2.25 1.029-1.715 1.029-1.715-3.75-2.25zm3.75 2.25v2h.445v-4h-.445zm.445 0v2c1.176 0 2.039.376 2.592 1.1176l1.604-1.1957 1.603-1.1956c-1.51-2.024-3.74-2.7263-5.799-2.7263zm4.196 1.922-1.573 1.2356.258.328L173.342 8.1l1.573-1.2356-.258-.3281zm.257.328-1.572-1.2356-.258.3281 1.573 1.2357 1.572 1.2356.258-.3281zm-.257.3282-1.604-1.1957c-.553.7416-1.416 1.1175-2.592 1.1175v4c2.059 0 4.289-.7021 5.799-2.7262zm-4.196 1.9218v-2h-.445v4h.445zm-.445 0-1.029-1.715-3.75 2.2501 1.029 1.7149 1.029 1.715 3.75-2.25zm-3.75 2.25-1.029-1.7149c-.514.3086-1.074.4649-1.666.4649v4c1.329 0 2.598-.3593 3.724-1.035zm-2.695.75v-2h-1.172v4h1.172zm-1.172 0v-2c.468 0 .875.3762.875.875h-4c0 1.7645 1.438 3.125 3.125 3.125zm5.437-3v-2h-2.625v4h2.625zm-2.625 0-1.28-1.5364-.563.4687 1.281 1.5365 1.28 1.5364.563-.4687zm-.562.4688h-2v1.2656h4v-1.2656zm0 1.2656.485 1.9403c.616-.154 1.144-.4101 1.562-.6491l-.992-1.7365-.993-1.7365c-.238.136-.413.208-.547.2415zm1.055-.4453 1.034 1.7117 2.133-1.2891-1.035-1.7117-1.034-1.7116-2.133 1.289zm-2.18.5859h2V11.1h-4v1.125zm0-1.125v-2h-1.125v4h1.125zm-1.125 0h-2v1.125h4V11.1zm0 1.125v2h1.125v-4h-1.125zm5.437-6.375 1.035-1.7116-2.133-1.289-1.034 1.7116-1.035 1.7116 2.133 1.289zm-2.132-1.289.992-1.7365c-.418-.239-.946-.4952-1.562-.6491l-.485 1.9403-.485 1.9402c.134.0336.309.1056.547.2416zm-1.055-.4453h-2v1.2656h4V4.1157zm0 1.2656-1.281 1.5364.563.4688 1.28-1.5365 1.281-1.5364-.563-.4688zm.562.4687v2h2.625v-4h-2.625zm-2.812-1.875h-2V5.1h4V3.975zm0 1.125v2h1.125v-4h-1.125zm1.125 0h2V3.975h-4V5.1zm0-1.125v-2h-1.125v4h1.125zm-1.125 2.4375h-2V9.975h4V6.4125zm0 3.5625v2h1.5v-4h-1.5zm1.5 0 1.266 1.548.774-.6329-1.267-1.5479-1.266-1.5479-.774.6328zm.773-.6328 1.163 1.6275.164-.1172-1.163-1.6275-1.162-1.6274-.164.1172zm.164-.1172v2h5.625v-4h-5.625zm5.625 0v2c1.024 0 1.995-.188 2.901-.6059l-.838-1.816-.838-1.8159c-.314.1446-.702.2378-1.225.2378zm2.063-.4218h2V7.3969h-4v1.4063zm0-1.4063.838-1.816c-.906-.4178-1.877-.6059-2.901-.6059v4c.523 0 .911.0932 1.225.2378zm-2.063-.4219v-2h-5.625v4h5.625zm-5.625 0 1.163-1.6274-.164-.1172-1.163 1.6274-1.162 1.6275.164.1172zm-.164-.1171 1.267-1.548-.774-.6328-1.266 1.548-1.267 1.5478.774.6329zm-.773-.6329v-2h-1.5v4h1.5zm-1.5 0h-2v.1875h4V6.225zm8.625 1.125v2c-.894 0-1.625-.7313-1.625-1.625h4c0-1.3155-1.06-2.375-2.375-2.375zm.375.375h-2v.75h4v-.75zm0 .75h-2c0-.8936.731-1.625 1.625-1.625v4c1.315 0 2.375-1.0595 2.375-2.375zm-.375.375v-2c.893 0 1.625.7314 1.625 1.625h-4a2.37 2.37 0 0 0 2.375 2.375zm-.375-.375h2v-.75h-4v.75zm0-.75h2c0 .8937-.732 1.625-1.625 1.625v-4a2.37 2.37 0 0 0-2.375 2.375z" class="stroke" mask="url(#b)"/><path fill="currentColor" d="M159.702 12.225v-8.25c0-.6093.515-1.125 1.125-1.125h1.172c.961 0 1.875.2578 2.695.75l3.75 2.25h.445c1.618 0 3.164.5391 4.196 1.922l.257.328-.257.3282c-1.032 1.3828-2.578 1.9218-4.196 1.9218h-.445l-3.75 2.25c-.82.4922-1.734.75-2.695.75h-1.172c-.61 0-1.125-.4922-1.125-1.125m6.562-1.875h-2.625l-.562.4688v1.2656c.375-.0937.726-.2578 1.055-.4453zm-4.312 1.875V11.1h-1.125v1.125zm4.312-6.375-2.132-1.289c-.329-.1875-.68-.3516-1.055-.4453v1.2656l.562.4687zm-5.437-1.875V5.1h1.125V3.975zm0 2.4375V9.975h1.5l.773-.6328.164-.1172h5.625c.774 0 1.453-.1406 2.063-.4218V7.3969c-.61-.2812-1.289-.4219-2.063-.4219h-5.625l-.164-.1171-.773-.6329h-1.5zm8.625.9375c.211 0 .375.1641.375.375v.75c0 .211-.164.375-.375.375s-.375-.164-.375-.375v-.75c0-.2109.164-.375.375-.375"/><defs><clipPath id="a"><path fill="#fff" d="M.503 7.5h199v171h-199z"/></clipPath></defs></svg>