<svg xmlns="http://www.w3.org/2000/svg" fill="none" stroke="#888" stroke-linecap="round" stroke-linejoin="round" stroke-width="1.5" viewBox="0 0 24 24"><path d="m6.5781 9.4068a2.8287 2.8287 0 0 1-2.6134-1.7462 2.8287 2.8287 0 0 1 0.61318-3.0826 2.8287 2.8287 0 0 1 3.0826-0.61318 2.8287 2.8287 0 0 1 1.7462 2.6134"/><path d="m9.4071 17.422c-9.4e-6 1.1442-0.68924 2.1757-1.7463 2.6136-1.0571 0.43792-2.2739 0.19586-3.083-0.61323-0.80909-0.80908-1.0511-2.0259-0.61325-3.083 0.43785-1.0571 1.4694-1.7464 2.6136-1.7464"/><path d="m14.593 6.5781c0-1.1441 0.68923-2.1756 1.7462-2.6134 1.057-0.43781 2.2736-0.1958 3.0826 0.61318 0.80899 0.80899 1.051 2.0256 0.61323 3.0826-0.43783 1.057-1.4694 1.7462-2.6134 1.7462"/><path d="m17.422 14.593c1.1442 0 2.1758 0.68933 2.6136 1.7464 0.43792 1.0571 0.19586 2.2739-0.61323 3.083-0.80908 0.80909-2.0259 1.0512-3.083 0.61323-1.0571-0.43783-1.7464-1.4694-1.7464-2.6136"/><path d="m6.5781 9.4068h10.843"/><path d="m6.5781 14.593h10.843"/><path d="m9.4071 17.422-2.792e-4 -10.844"/><path d="m14.593 17.422 2.79e-4 -10.844"/></svg>